<?xml version="1.0" encoding="utf-8"?>
<!-- Generated by Mocodo 4.2.11 -->
<svg width="558" height="533" viewBox="0 0 558 533" xmlns="http://www.w3.org/2000/svg">
<rect x="0" y="0" width="558" height="533" fill="#f7f7f7" stroke="none" stroke-width="0"/>

<!-- Association CREATE -->
<g>
	<line x1="272" y1="102" x2="165" y2="102" stroke="#4393c3" stroke-width="2"/>
	<line x1="54" y1="102" x2="165" y2="102" stroke="#4393c3" stroke-width="2"/>
	<g>
		<path d="M183 77 a14 14 90 0 1 14 14 V102 h-64 V91 a14 14 90 0 1 14 -14" fill="#92c5de" stroke="#92c5de" stroke-width="0"/>
		<path d="M197 102 v11 a14 14 90 0 1 -14 14 H147 a14 14 90 0 1 -14 -14 V102 H64" fill="#d1e5f0" stroke="#d1e5f0" stroke-width="0"/>
		<rect x="133" y="77" width="64" height="50" fill="none" rx="14" stroke="#4393c3" stroke-width="2"/>
		<line x1="133" y1="102" x2="197" y2="102" stroke="#4393c3" stroke-width="1"/>
		<text x="141" y="94.75" fill="#000000" font-family="Verdana" font-size="12">CREATE</text>
	</g>
	<text x="204" y="119" fill="#b2182b" font-family="Verdana" font-size="12">1,N</text>
	<text x="104" y="94" fill="#b2182b" font-family="Verdana" font-size="12">O,N</text>
</g>

<!-- Association ASSOCIATE -->
<g>
	<line x1="508" y1="102" x2="390" y2="102" stroke="#4393c3" stroke-width="2"/>
	<line x1="272" y1="102" x2="390" y2="102" stroke="#4393c3" stroke-width="2"/>
	<g>
		<path d="M419 77 a14 14 90 0 1 14 14 V102 h-86 V91 a14 14 90 0 1 14 -14" fill="#92c5de" stroke="#92c5de" stroke-width="0"/>
		<path d="M433 102 v11 a14 14 90 0 1 -14 14 H361 a14 14 90 0 1 -14 -14 V102 H86" fill="#d1e5f0" stroke="#d1e5f0" stroke-width="0"/>
		<rect x="347" y="77" width="86" height="50" fill="none" rx="14" stroke="#4393c3" stroke-width="2"/>
		<line x1="347" y1="102" x2="433" y2="102" stroke="#4393c3" stroke-width="1"/>
		<text x="354" y="94.75" fill="#000000" font-family="Verdana" font-size="12">ASSOCIATE</text>
	</g>
	<text x="440" y="119" fill="#b2182b" font-family="Verdana" font-size="12">1,N</text>
	<text x="318" y="119" fill="#b2182b" font-family="Verdana" font-size="12">O,N</text>
</g>

<!-- Association LEAVE -->
<g>
	<line x1="390" y1="262" x2="272" y2="262" stroke="#4393c3" stroke-width="2"/>
	<line x1="54" y1="102" x2="272" y2="262" stroke="#4393c3" stroke-width="2"/>
	<g>
		<path d="M285 237 a14 14 90 0 1 14 14 V262 h-54 V251 a14 14 90 0 1 14 -14" fill="#92c5de" stroke="#92c5de" stroke-width="0"/>
		<path d="M299 262 v11 a14 14 90 0 1 -14 14 H259 a14 14 90 0 1 -14 -14 V262 H54" fill="#d1e5f0" stroke="#d1e5f0" stroke-width="0"/>
		<rect x="245" y="237" width="54" height="50" fill="none" rx="14" stroke="#4393c3" stroke-width="2"/>
		<line x1="245" y1="262" x2="299" y2="262" stroke="#4393c3" stroke-width="1"/>
		<text x="253" y="254.75" fill="#000000" font-family="Verdana" font-size="12">LEAVE</text>
	</g>
	<text x="312" y="279" fill="#b2182b" font-family="Verdana" font-size="12">1,N</text>
	<text x="104" y="132.58" fill="#b2182b" font-family="Verdana" font-size="12">O,N</text>
</g>

<!-- Association GIVE -->
<g>
	<line x1="390" y1="380" x2="272" y2="380" stroke="#4393c3" stroke-width="2"/>
	<line x1="54" y1="102" x2="272" y2="380" stroke="#4393c3" stroke-width="2"/>
	<g>
		<path d="M281 355 a14 14 90 0 1 14 14 V380 h-46 V369 a14 14 90 0 1 14 -14" fill="#92c5de" stroke="#92c5de" stroke-width="0"/>
		<path d="M295 380 v11 a14 14 90 0 1 -14 14 H263 a14 14 90 0 1 -14 -14 V380 H46" fill="#d1e5f0" stroke="#d1e5f0" stroke-width="0"/>
		<rect x="249" y="355" width="46" height="50" fill="none" rx="14" stroke="#4393c3" stroke-width="2"/>
		<line x1="249" y1="380" x2="295" y2="380" stroke="#4393c3" stroke-width="1"/>
		<text x="257" y="372.75" fill="#000000" font-family="Verdana" font-size="12">GIVE</text>
	</g>
	<text x="330" y="397" fill="#b2182b" font-family="Verdana" font-size="12">1,N</text>
	<text x="104" y="157.26" fill="#b2182b" font-family="Verdana" font-size="12">O,N</text>
</g>

<!-- Association HAVE -->
<g>
	<line x1="390" y1="490" x2="272" y2="490" stroke="#4393c3" stroke-width="2"/>
	<line x1="54" y1="102" x2="272" y2="490" stroke="#4393c3" stroke-width="2"/>
	<g>
		<path d="M282 465 a14 14 90 0 1 14 14 V490 h-48 V479 a14 14 90 0 1 14 -14" fill="#92c5de" stroke="#92c5de" stroke-width="0"/>
		<path d="M296 490 v11 a14 14 90 0 1 -14 14 H262 a14 14 90 0 1 -14 -14 V490 H48" fill="#d1e5f0" stroke="#d1e5f0" stroke-width="0"/>
		<rect x="248" y="465" width="48" height="50" fill="none" rx="14" stroke="#4393c3" stroke-width="2"/>
		<line x1="248" y1="490" x2="296" y2="490" stroke="#4393c3" stroke-width="1"/>
		<text x="255" y="482.75" fill="#000000" font-family="Verdana" font-size="12">HAVE</text>
	</g>
	<text x="337" y="507" fill="#b2182b" font-family="Verdana" font-size="12">1,N</text>
	<text x="72.07" y="195" fill="#b2182b" font-family="Verdana" font-size="12">O,N</text>
</g>

<!-- Entity USER -->
<g>
	<g>
		<rect x="9" y="26" width="90" height="25" fill="#f4a582" stroke="none" stroke-width="0" opacity="1"/>
		<rect x="9" y="51" width="90" height="127" fill="#fddbc7" stroke="none" stroke-width="0" opacity="1"/>
		<rect x="9" y="26" width="90" height="152" fill="none" stroke="#d6604d" stroke-width="2" opacity="1"/>
		<line x1="9" y1="51" x2="99" y2="51" stroke="#d6604d" stroke-width="1"/>
	</g>
	<text x="37" y="43.75" fill="#000000" font-family="Verdana" font-size="12">USER</text>
	<text x="14" y="68.8" fill="#000000" font-family="Verdana" font-size="12">id_user</text>
	<line x1="14" y1="71" x2="60" y2="71" stroke="#000000" stroke-width="1"/>
	<text x="14" y="85.8" fill="#000000" font-family="Verdana" font-size="12">name</text>
	<text x="14" y="102.8" fill="#000000" font-family="Verdana" font-size="12">email</text>
	<text x="14" y="119.8" fill="#000000" font-family="Verdana" font-size="12">password</text>
	<text x="14" y="136.8" fill="#000000" font-family="Verdana" font-size="12">date_created</text>
	<text x="14" y="153.8" fill="#000000" font-family="Verdana" font-size="12">status</text>
	<text x="14" y="170.8" fill="#000000" font-family="Verdana" font-size="12">id_role</text>
</g>

<!-- Entity RECIPE -->
<g>
	<g>
		<rect x="231" y="9" width="82" height="25" fill="#f4a582" stroke="none" stroke-width="0" opacity="1"/>
		<rect x="231" y="34" width="82" height="161" fill="#fddbc7" stroke="none" stroke-width="0" opacity="1"/>
		<rect x="231" y="9" width="82" height="186" fill="none" stroke="#d6604d" stroke-width="2" opacity="1"/>
		<line x1="231" y1="34" x2="313" y2="34" stroke="#d6604d" stroke-width="1"/>
	</g>
	<text x="250" y="26.75" fill="#000000" font-family="Verdana" font-size="12">RECIPE</text>
	<text x="236" y="51.8" fill="#000000" font-family="Verdana" font-size="12">id_recipe</text>
	<line x1="236" y1="54" x2="292" y2="54" stroke="#000000" stroke-width="1"/>
	<text x="236" y="68.8" fill="#000000" font-family="Verdana" font-size="12">title</text>
	<text x="236" y="85.8" fill="#000000" font-family="Verdana" font-size="12">description</text>
	<text x="236" y="102.8" fill="#000000" font-family="Verdana" font-size="12">anecdote</text>
	<text x="236" y="119.8" fill="#000000" font-family="Verdana" font-size="12">ingredients</text>
	<text x="236" y="136.8" fill="#000000" font-family="Verdana" font-size="12">instructions</text>
	<text x="236" y="153.8" fill="#000000" font-family="Verdana" font-size="12">source</text>
	<text x="236" y="170.8" fill="#000000" font-family="Verdana" font-size="12">date_added</text>
	<text x="236" y="187.8" fill="#000000" font-family="Verdana" font-size="12">id_category</text>
</g>

<!-- Entity CATEGORY -->
<g>
	<g>
		<rect x="467" y="68" width="82" height="25" fill="#f4a582" stroke="none" stroke-width="0" opacity="1"/>
		<rect x="467" y="93" width="82" height="43" fill="#fddbc7" stroke="none" stroke-width="0" opacity="1"/>
		<rect x="467" y="68" width="82" height="68" fill="none" stroke="#d6604d" stroke-width="2" opacity="1"/>
		<line x1="467" y1="93" x2="549" y2="93" stroke="#d6604d" stroke-width="1"/>
	</g>
	<text x="475" y="85.75" fill="#000000" font-family="Verdana" font-size="12">CATEGORY</text>
	<text x="472" y="110.8" fill="#000000" font-family="Verdana" font-size="12">id_category</text>
	<line x1="472" y1="113" x2="544" y2="113" stroke="#000000" stroke-width="1"/>
	<text x="472" y="127.8" fill="#000000" font-family="Verdana" font-size="12">name</text>
</g>

<!-- Entity COMMENT -->
<g>
	<g>
		<rect x="339" y="220" width="102" height="25" fill="#f4a582" stroke="none" stroke-width="0" opacity="1"/>
		<rect x="339" y="245" width="102" height="59" fill="#fddbc7" stroke="none" stroke-width="0" opacity="1"/>
		<rect x="339" y="220" width="102" height="84" fill="none" stroke="#d6604d" stroke-width="2" opacity="1"/>
		<line x1="339" y1="245" x2="441" y2="245" stroke="#d6604d" stroke-width="1"/>
	</g>
	<text x="359" y="237.75" fill="#000000" font-family="Verdana" font-size="12">COMMENT</text>
	<text x="344" y="262.8" fill="#000000" font-family="Verdana" font-size="12">id_comment</text>
	<line x1="344" y1="265" x2="420" y2="265" stroke="#000000" stroke-width="1"/>
	<text x="344" y="279.8" fill="#000000" font-family="Verdana" font-size="12">content</text>
	<text x="344" y="296.8" fill="#000000" font-family="Verdana" font-size="12">date_comment</text>
</g>

<!-- Entity SCORE -->
<g>
	<g>
		<rect x="357" y="329" width="66" height="25" fill="#f4a582" stroke="none" stroke-width="0" opacity="1"/>
		<rect x="357" y="354" width="66" height="77" fill="#fddbc7" stroke="none" stroke-width="0" opacity="1"/>
		<rect x="357" y="329" width="66" height="102" fill="none" stroke="#d6604d" stroke-width="2" opacity="1"/>
		<line x1="357" y1="354" x2="423" y2="354" stroke="#d6604d" stroke-width="1"/>
	</g>
	<text x="369" y="346.75" fill="#000000" font-family="Verdana" font-size="12">SCORE</text>
	<text x="362" y="371.8" fill="#000000" font-family="Verdana" font-size="12">id_score</text>
	<line x1="362" y1="374" x2="413" y2="374" stroke="#000000" stroke-width="1"/>
	<text x="362" y="388.8" fill="#000000" font-family="Verdana" font-size="12">score</text>
	<text x="362" y="405.8" fill="#000000" font-family="Verdana" font-size="12">id_user</text>
	<text x="362" y="422.8" fill="#000000" font-family="Verdana" font-size="12">id_recipe</text>
</g>

<!-- Entity ROLE -->
<g>
	<g>
		<rect x="364" y="456" width="52" height="25" fill="#f4a582" stroke="none" stroke-width="0" opacity="1"/>
		<rect x="364" y="481" width="52" height="43" fill="#fddbc7" stroke="none" stroke-width="0" opacity="1"/>
		<rect x="364" y="456" width="52" height="68" fill="none" stroke="#d6604d" stroke-width="2" opacity="1"/>
		<line x1="364" y1="481" x2="416" y2="481" stroke="#d6604d" stroke-width="1"/>
	</g>
	<text x="374" y="473.75" fill="#000000" font-family="Verdana" font-size="12">ROLE</text>
	<text x="369" y="498.8" fill="#000000" font-family="Verdana" font-size="12">id_role</text>
	<line x1="369" y1="501" x2="411" y2="501" stroke="#000000" stroke-width="1"/>
	<text x="369" y="515.8" fill="#000000" font-family="Verdana" font-size="12">role</text>
</g>
</svg>