<?xml version="1.0" encoding="utf-8"?>
<!-- Generated by Mocodo 4.2.11 -->
<svg width="640" height="481" viewBox="0 0 640 481" xmlns="http://www.w3.org/2000/svg">
<rect x="0" y="0" width="640" height="481" fill="#f7f7f7" stroke="none" stroke-width="0"/>

<!-- Association ACCEPT -->
<g>
	<line x1="216" y1="220" x2="216" y2="68" stroke="#5aae61" stroke-width="2"/>
	<line x1="345" y1="68" x2="216" y2="68" stroke="#5aae61" stroke-width="2"/>
	<g>
		<path d="M233 43 a14 14 90 0 1 14 14 V68 h-62 V57 a14 14 90 0 1 14 -14" fill="#a6dba0" stroke="#a6dba0" stroke-width="0"/>
		<path d="M247 68 v11 a14 14 90 0 1 -14 14 H199 a14 14 90 0 1 -14 -14 V68 H62" fill="#d9f0d3" stroke="#d9f0d3" stroke-width="0"/>
		<rect x="185" y="43" width="62" height="50" fill="none" rx="14" stroke="#5aae61" stroke-width="2"/>
		<line x1="185" y1="68" x2="247" y2="68" stroke="#5aae61" stroke-width="1"/>
		<text x="192" y="60.75" fill="#000000" font-family="Verdana" font-size="12">ACCEPT</text>
	</g>
	<text x="221" y="144" fill="#762a83" font-family="Verdana" font-size="12">0,N</text>
	<text x="265" y="85" fill="#762a83" font-family="Verdana" font-size="12">1,N</text>
</g>

<!-- Association LEAVE -->
<g>
	<line x1="345" y1="68" x2="470" y2="68" stroke="#5aae61" stroke-width="2"/>
	<line x1="470" y1="220" x2="470" y2="68" stroke="#5aae61" stroke-width="2"/>
	<g>
		<path d="M483 43 a14 14 90 0 1 14 14 V68 h-54 V57 a14 14 90 0 1 14 -14" fill="#a6dba0" stroke="#a6dba0" stroke-width="0"/>
		<path d="M497 68 v11 a14 14 90 0 1 -14 14 H457 a14 14 90 0 1 -14 -14 V68 H54" fill="#d9f0d3" stroke="#d9f0d3" stroke-width="0"/>
		<rect x="443" y="43" width="54" height="50" fill="none" rx="14" stroke="#5aae61" stroke-width="2"/>
		<line x1="443" y1="68" x2="497" y2="68" stroke="#5aae61" stroke-width="1"/>
		<text x="451" y="60.75" fill="#000000" font-family="Verdana" font-size="12">LEAVE</text>
	</g>
	<text x="403" y="85" fill="#762a83" font-family="Verdana" font-size="12">1,N</text>
	<text x="475" y="153" fill="#762a83" font-family="Verdana" font-size="12">1,1</text>
</g>

<!-- Association CONTAIN -->
<g>
	<line x1="216" y1="220" x2="77" y2="220" stroke="#5aae61" stroke-width="2"/>
	<line x1="77" y1="68" x2="77" y2="220" stroke="#5aae61" stroke-width="2"/>
	<g>
		<path d="M99 195 a14 14 90 0 1 14 14 V220 h-72 V209 a14 14 90 0 1 14 -14" fill="#a6dba0" stroke="#a6dba0" stroke-width="0"/>
		<path d="M113 220 v11 a14 14 90 0 1 -14 14 H55 a14 14 90 0 1 -14 -14 V220 H72" fill="#d9f0d3" stroke="#d9f0d3" stroke-width="0"/>
		<rect x="41" y="195" width="72" height="50" fill="none" rx="14" stroke="#5aae61" stroke-width="2"/>
		<line x1="41" y1="220" x2="113" y2="220" stroke="#5aae61" stroke-width="1"/>
		<text x="48" y="212.75" fill="#000000" font-family="Verdana" font-size="12">CONTAIN</text>
	</g>
	<text x="145" y="212" fill="#762a83" font-family="Verdana" font-size="12">1,N</text>
	<text x="82" y="144" fill="#762a83" font-family="Verdana" font-size="12">1,N</text>
</g>

<!-- Association CREATE -->
<g>
	<line x1="216" y1="220" x2="345" y2="220" stroke="#5aae61" stroke-width="2"/>
	<line x1="470" y1="220" x2="345" y2="220" stroke="#5aae61" stroke-width="2"/>
	<g>
		<path d="M363 195 a14 14 90 0 1 14 14 V220 h-64 V209 a14 14 90 0 1 14 -14" fill="#a6dba0" stroke="#a6dba0" stroke-width="0"/>
		<path d="M377 220 v11 a14 14 90 0 1 -14 14 H327 a14 14 90 0 1 -14 -14 V220 H64" fill="#d9f0d3" stroke="#d9f0d3" stroke-width="0"/>
		<rect x="313" y="195" width="64" height="50" fill="none" rx="14" stroke="#5aae61" stroke-width="2"/>
		<line x1="313" y1="220" x2="377" y2="220" stroke="#5aae61" stroke-width="1"/>
		<text x="321" y="212.75" fill="#000000" font-family="Verdana" font-size="12">CREATE</text>
	</g>
	<text x="265" y="212" fill="#762a83" font-family="Verdana" font-size="12">1,N</text>
	<text x="383" y="237" fill="#762a83" font-family="Verdana" font-size="12">1,1</text>
</g>

<!-- Association OWN -->
<g>
	<line x1="470" y1="220" x2="586" y2="220" stroke="#5aae61" stroke-width="2"/>
	<line x1="586" y1="68" x2="586" y2="220" stroke="#5aae61" stroke-width="2"/>
	<g>
		<path d="M595 195 a14 14 90 0 1 14 14 V220 h-46 V209 a14 14 90 0 1 14 -14" fill="#a6dba0" stroke="#a6dba0" stroke-width="0"/>
		<path d="M609 220 v11 a14 14 90 0 1 -14 14 H577 a14 14 90 0 1 -14 -14 V220 H46" fill="#d9f0d3" stroke="#d9f0d3" stroke-width="0"/>
		<rect x="563" y="195" width="46" height="50" fill="none" rx="14" stroke="#5aae61" stroke-width="2"/>
		<line x1="563" y1="220" x2="609" y2="220" stroke="#5aae61" stroke-width="1"/>
		<text x="571" y="212.75" fill="#000000" font-family="Verdana" font-size="12">OWN</text>
	</g>
	<text x="536" y="212" fill="#762a83" font-family="Verdana" font-size="12">1,1</text>
	<text x="591" y="119" fill="#762a83" font-family="Verdana" font-size="12">1,N</text>
</g>

<!-- Association ASSOCIATE -->
<g>
	<line x1="77" y1="430" x2="77" y2="338" stroke="#5aae61" stroke-width="2"/>
	<line x1="216" y1="220" x2="77" y2="338" stroke="#5aae61" stroke-width="2"/>
	<g>
		<path d="M106 313 a14 14 90 0 1 14 14 V338 h-86 V327 a14 14 90 0 1 14 -14" fill="#a6dba0" stroke="#a6dba0" stroke-width="0"/>
		<path d="M120 338 v11 a14 14 90 0 1 -14 14 H48 a14 14 90 0 1 -14 -14 V338 H86" fill="#d9f0d3" stroke="#d9f0d3" stroke-width="0"/>
		<rect x="34" y="313" width="86" height="50" fill="none" rx="14" stroke="#5aae61" stroke-width="2"/>
		<line x1="34" y1="338" x2="120" y2="338" stroke="#5aae61" stroke-width="1"/>
		<text x="41" y="330.75" fill="#000000" font-family="Verdana" font-size="12">ASSOCIATE</text>
	</g>
	<text x="82" y="388" fill="#762a83" font-family="Verdana" font-size="12">1,1</text>
	<text x="145" y="255.61" fill="#762a83" font-family="Verdana" font-size="12">1,N</text>
</g>

<!-- Association POSSESS -->
<g>
	<line x1="216" y1="220" x2="216" y2="338" stroke="#5aae61" stroke-width="2"/>
	<line x1="216" y1="430" x2="216" y2="338" stroke="#5aae61" stroke-width="2"/>
	<g>
		<path d="M238 313 a14 14 90 0 1 14 14 V338 h-72 V327 a14 14 90 0 1 14 -14" fill="#a6dba0" stroke="#a6dba0" stroke-width="0"/>
		<path d="M252 338 v11 a14 14 90 0 1 -14 14 H194 a14 14 90 0 1 -14 -14 V338 H72" fill="#d9f0d3" stroke="#d9f0d3" stroke-width="0"/>
		<rect x="180" y="313" width="72" height="50" fill="none" rx="14" stroke="#5aae61" stroke-width="2"/>
		<line x1="180" y1="338" x2="252" y2="338" stroke="#5aae61" stroke-width="1"/>
		<text x="187" y="330.75" fill="#000000" font-family="Verdana" font-size="12">POSSESS</text>
	</g>
	<text x="221" y="305" fill="#762a83" font-family="Verdana" font-size="12">1,N</text>
	<text x="221" y="380" fill="#762a83" font-family="Verdana" font-size="12">1,N</text>
</g>

<!-- Association RECEIVE -->
<g>
	<line x1="216" y1="220" x2="345" y2="338" stroke="#5aae61" stroke-width="2"/>
	<line x1="345" y1="430" x2="345" y2="338" stroke="#5aae61" stroke-width="2"/>
	<g>
		<path d="M365 313 a14 14 90 0 1 14 14 V338 h-68 V327 a14 14 90 0 1 14 -14" fill="#a6dba0" stroke="#a6dba0" stroke-width="0"/>
		<path d="M379 338 v11 a14 14 90 0 1 -14 14 H325 a14 14 90 0 1 -14 -14 V338 H68" fill="#d9f0d3" stroke="#d9f0d3" stroke-width="0"/>
		<rect x="311" y="313" width="68" height="50" fill="none" rx="14" stroke="#5aae61" stroke-width="2"/>
		<line x1="311" y1="338" x2="379" y2="338" stroke="#5aae61" stroke-width="1"/>
		<text x="318" y="330.75" fill="#000000" font-family="Verdana" font-size="12">RECEIVE</text>
	</g>
	<text x="265" y="258.87" fill="#762a83" font-family="Verdana" font-size="12">0,N</text>
	<text x="318" y="388" fill="#762a83" font-family="Verdana" font-size="12">1,N</text>
</g>

<!-- Association GIVE -->
<g>
	<line x1="345" y1="430" x2="470" y2="338" stroke="#5aae61" stroke-width="2"/>
	<line x1="470" y1="220" x2="470" y2="338" stroke="#5aae61" stroke-width="2"/>
	<g>
		<path d="M479 313 a14 14 90 0 1 14 14 V338 h-46 V327 a14 14 90 0 1 14 -14" fill="#a6dba0" stroke="#a6dba0" stroke-width="0"/>
		<path d="M493 338 v11 a14 14 90 0 1 -14 14 H461 a14 14 90 0 1 -14 -14 V338 H46" fill="#d9f0d3" stroke="#d9f0d3" stroke-width="0"/>
		<rect x="447" y="313" width="46" height="50" fill="none" rx="14" stroke="#5aae61" stroke-width="2"/>
		<line x1="447" y1="338" x2="493" y2="338" stroke="#5aae61" stroke-width="1"/>
		<text x="455" y="330.75" fill="#000000" font-family="Verdana" font-size="12">GIVE</text>
	</g>
	<text x="391" y="411.26" fill="#762a83" font-family="Verdana" font-size="12">1,1</text>
	<text x="444" y="296" fill="#762a83" font-family="Verdana" font-size="12">1,1</text>
</g>

<!-- Association HAVE -->
<g>
	<line x1="586" y1="430" x2="586" y2="338" stroke="#5aae61" stroke-width="2"/>
	<line x1="470" y1="220" x2="586" y2="338" stroke="#5aae61" stroke-width="2"/>
	<g>
		<path d="M596 313 a14 14 90 0 1 14 14 V338 h-48 V327 a14 14 90 0 1 14 -14" fill="#a6dba0" stroke="#a6dba0" stroke-width="0"/>
		<path d="M610 338 v11 a14 14 90 0 1 -14 14 H576 a14 14 90 0 1 -14 -14 V338 H48" fill="#d9f0d3" stroke="#d9f0d3" stroke-width="0"/>
		<rect x="562" y="313" width="48" height="50" fill="none" rx="14" stroke="#5aae61" stroke-width="2"/>
		<line x1="562" y1="338" x2="610" y2="338" stroke="#5aae61" stroke-width="1"/>
		<text x="569" y="330.75" fill="#000000" font-family="Verdana" font-size="12">HAVE</text>
	</g>
	<text x="591" y="388" fill="#762a83" font-family="Verdana" font-size="12">1,N</text>
	<text x="508.99" y="296" fill="#762a83" font-family="Verdana" font-size="12">1,1</text>
</g>

<!-- Entity INGREDIENT -->
<g>
	<g>
		<rect x="9" y="9" width="136" height="25" fill="#c2a5cf" stroke="none" stroke-width="0" opacity="1"/>
		<rect x="9" y="34" width="136" height="93" fill="#e7d4e8" stroke="none" stroke-width="0" opacity="1"/>
		<rect x="9" y="9" width="136" height="118" fill="none" stroke="#9970ab" stroke-width="2" opacity="1"/>
		<line x1="9" y1="34" x2="145" y2="34" stroke="#9970ab" stroke-width="1"/>
	</g>
	<text x="38" y="26.75" fill="#000000" font-family="Verdana" font-size="12">INGREDIENT</text>
	<text x="14" y="51.8" fill="#000000" font-family="Verdana" font-size="12">code_Ingredient</text>
	<line x1="14" y1="54" x2="114" y2="54" stroke="#000000" stroke-width="1"/>
	<text x="14" y="68.8" fill="#000000" font-family="Verdana" font-size="12">name</text>
	<text x="14" y="85.8" fill="#000000" font-family="Verdana" font-size="12">quantity</text>
	<text x="14" y="102.8" fill="#000000" font-family="Verdana" font-size="12">quantity_Description</text>
	<text x="14" y="119.8" fill="#000000" font-family="Verdana" font-size="12">unit</text>
</g>

<!-- Entity COMMENT -->
<g>
	<g>
		<rect x="292" y="34" width="106" height="25" fill="#c2a5cf" stroke="none" stroke-width="0" opacity="1"/>
		<rect x="292" y="59" width="106" height="43" fill="#e7d4e8" stroke="none" stroke-width="0" opacity="1"/>
		<rect x="292" y="34" width="106" height="68" fill="none" stroke="#9970ab" stroke-width="2" opacity="1"/>
		<line x1="292" y1="59" x2="398" y2="59" stroke="#9970ab" stroke-width="1"/>
	</g>
	<text x="314" y="51.75" fill="#000000" font-family="Verdana" font-size="12">COMMENT</text>
	<text x="297" y="76.8" fill="#000000" font-family="Verdana" font-size="12">code_Comment</text>
	<line x1="297" y1="79" x2="392" y2="79" stroke="#000000" stroke-width="1"/>
	<text x="297" y="93.8" fill="#000000" font-family="Verdana" font-size="12">content</text>
</g>

<!-- Entity STATUS -->
<g>
	<g>
		<rect x="541" y="34" width="90" height="25" fill="#c2a5cf" stroke="none" stroke-width="0" opacity="1"/>
		<rect x="541" y="59" width="90" height="43" fill="#e7d4e8" stroke="none" stroke-width="0" opacity="1"/>
		<rect x="541" y="34" width="90" height="68" fill="none" stroke="#9970ab" stroke-width="2" opacity="1"/>
		<line x1="541" y1="59" x2="631" y2="59" stroke="#9970ab" stroke-width="1"/>
	</g>
	<text x="562" y="51.75" fill="#000000" font-family="Verdana" font-size="12">STATUS</text>
	<text x="546" y="76.8" fill="#000000" font-family="Verdana" font-size="12">code_Status</text>
	<line x1="546" y1="79" x2="622" y2="79" stroke="#000000" stroke-width="1"/>
	<text x="546" y="93.8" fill="#000000" font-family="Verdana" font-size="12">status_Name</text>
</g>

<!-- Entity RECIPE -->
<g>
	<g>
		<rect x="172" y="152" width="88" height="25" fill="#c2a5cf" stroke="none" stroke-width="0" opacity="1"/>
		<rect x="172" y="177" width="88" height="111" fill="#e7d4e8" stroke="none" stroke-width="0" opacity="1"/>
		<rect x="172" y="152" width="88" height="136" fill="none" stroke="#9970ab" stroke-width="2" opacity="1"/>
		<line x1="172" y1="177" x2="260" y2="177" stroke="#9970ab" stroke-width="1"/>
	</g>
	<text x="194" y="169.75" fill="#000000" font-family="Verdana" font-size="12">RECIPE</text>
	<text x="177" y="194.8" fill="#000000" font-family="Verdana" font-size="12">code_Recipe</text>
	<line x1="177" y1="197" x2="254" y2="197" stroke="#000000" stroke-width="1"/>
	<text x="177" y="211.8" fill="#000000" font-family="Verdana" font-size="12">title</text>
	<text x="177" y="228.8" fill="#000000" font-family="Verdana" font-size="12">description</text>
	<text x="177" y="245.8" fill="#000000" font-family="Verdana" font-size="12">anecdote</text>
	<text x="177" y="262.8" fill="#000000" font-family="Verdana" font-size="12">source</text>
	<text x="177" y="279.8" fill="#000000" font-family="Verdana" font-size="12">image</text>
</g>

<!-- Entity USER -->
<g>
	<g>
		<rect x="409" y="161" width="122" height="25" fill="#c2a5cf" stroke="none" stroke-width="0" opacity="1"/>
		<rect x="409" y="186" width="122" height="93" fill="#e7d4e8" stroke="none" stroke-width="0" opacity="1"/>
		<rect x="409" y="161" width="122" height="118" fill="none" stroke="#9970ab" stroke-width="2" opacity="1"/>
		<line x1="409" y1="186" x2="531" y2="186" stroke="#9970ab" stroke-width="1"/>
	</g>
	<text x="453" y="178.75" fill="#000000" font-family="Verdana" font-size="12">USER</text>
	<text x="414" y="203.8" fill="#000000" font-family="Verdana" font-size="12">code_User</text>
	<line x1="414" y1="206" x2="478" y2="206" stroke="#000000" stroke-width="1"/>
	<text x="414" y="220.8" fill="#000000" font-family="Verdana" font-size="12">name</text>
	<text x="414" y="237.8" fill="#000000" font-family="Verdana" font-size="12">email</text>
	<text x="414" y="254.8" fill="#000000" font-family="Verdana" font-size="12">password</text>
	<text x="414" y="271.8" fill="#000000" font-family="Verdana" font-size="12">confirm_Password</text>
</g>

<!-- Entity CATEGORY -->
<g>
	<g>
		<rect x="26" y="396" width="102" height="25" fill="#c2a5cf" stroke="none" stroke-width="0" opacity="1"/>
		<rect x="26" y="421" width="102" height="43" fill="#e7d4e8" stroke="none" stroke-width="0" opacity="1"/>
		<rect x="26" y="396" width="102" height="68" fill="none" stroke="#9970ab" stroke-width="2" opacity="1"/>
		<line x1="26" y1="421" x2="128" y2="421" stroke="#9970ab" stroke-width="1"/>
	</g>
	<text x="44" y="413.75" fill="#000000" font-family="Verdana" font-size="12">CATEGORY</text>
	<text x="31" y="438.8" fill="#000000" font-family="Verdana" font-size="12">code_Category</text>
	<line x1="31" y1="441" x2="122" y2="441" stroke="#000000" stroke-width="1"/>
	<text x="31" y="455.8" fill="#000000" font-family="Verdana" font-size="12">name</text>
</g>

<!-- Entity INSTRUCTION -->
<g>
	<g>
		<rect x="160" y="388" width="112" height="25" fill="#c2a5cf" stroke="none" stroke-width="0" opacity="1"/>
		<rect x="160" y="413" width="112" height="59" fill="#e7d4e8" stroke="none" stroke-width="0" opacity="1"/>
		<rect x="160" y="388" width="112" height="84" fill="none" stroke="#9970ab" stroke-width="2" opacity="1"/>
		<line x1="160" y1="413" x2="272" y2="413" stroke="#9970ab" stroke-width="1"/>
	</g>
	<text x="173" y="405.75" fill="#000000" font-family="Verdana" font-size="12">INSTRUCTION</text>
	<text x="165" y="430.8" fill="#000000" font-family="Verdana" font-size="12">code_Instruction</text>
	<line x1="165" y1="433" x2="267" y2="433" stroke="#000000" stroke-width="1"/>
	<text x="165" y="447.8" fill="#000000" font-family="Verdana" font-size="12">step_Number</text>
	<text x="165" y="464.8" fill="#000000" font-family="Verdana" font-size="12">instruction</text>
</g>

<!-- Entity SCORE -->
<g>
	<g>
		<rect x="304" y="396" width="82" height="25" fill="#c2a5cf" stroke="none" stroke-width="0" opacity="1"/>
		<rect x="304" y="421" width="82" height="43" fill="#e7d4e8" stroke="none" stroke-width="0" opacity="1"/>
		<rect x="304" y="396" width="82" height="68" fill="none" stroke="#9970ab" stroke-width="2" opacity="1"/>
		<line x1="304" y1="421" x2="386" y2="421" stroke="#9970ab" stroke-width="1"/>
	</g>
	<text x="324" y="413.75" fill="#000000" font-family="Verdana" font-size="12">SCORE</text>
	<text x="309" y="438.8" fill="#000000" font-family="Verdana" font-size="12">code_Score</text>
	<line x1="309" y1="441" x2="380" y2="441" stroke="#000000" stroke-width="1"/>
	<text x="309" y="455.8" fill="#000000" font-family="Verdana" font-size="12">score</text>
</g>

<!-- Entity ROLE -->
<g>
	<g>
		<rect x="547" y="396" width="78" height="25" fill="#c2a5cf" stroke="none" stroke-width="0" opacity="1"/>
		<rect x="547" y="421" width="78" height="43" fill="#e7d4e8" stroke="none" stroke-width="0" opacity="1"/>
		<rect x="547" y="396" width="78" height="68" fill="none" stroke="#9970ab" stroke-width="2" opacity="1"/>
		<line x1="547" y1="421" x2="625" y2="421" stroke="#9970ab" stroke-width="1"/>
	</g>
	<text x="570" y="413.75" fill="#000000" font-family="Verdana" font-size="12">ROLE</text>
	<text x="552" y="438.8" fill="#000000" font-family="Verdana" font-size="12">code_Role</text>
	<line x1="552" y1="441" x2="615" y2="441" stroke="#000000" stroke-width="1"/>
	<text x="552" y="455.8" fill="#000000" font-family="Verdana" font-size="12">role_Name</text>
</g>
</svg>