<?xml version="1.0" encoding="utf-8"?>
<!-- Generated by Mocodo 4.2.11 -->
<svg width="554" height="372" viewBox="0 0 554 372" xmlns="http://www.w3.org/2000/svg">
<rect x="0" y="0" width="554" height="372" fill="#f7f7f7" stroke="none" stroke-width="0"/>

<!-- Association LEAVE -->
<g>
	<line x1="259" y1="51" x2="147" y2="51" stroke="#4393c3" stroke-width="2"/>
	<line x1="147" y1="203" x2="147" y2="51" stroke="#4393c3" stroke-width="2"/>
	<g>
		<path d="M160 26 a14 14 90 0 1 14 14 V51 h-54 V40 a14 14 90 0 1 14 -14" fill="#92c5de" stroke="#92c5de" stroke-width="0"/>
		<path d="M174 51 v11 a14 14 90 0 1 -14 14 H134 a14 14 90 0 1 -14 -14 V51 H54" fill="#d1e5f0" stroke="#d1e5f0" stroke-width="0"/>
		<rect x="120" y="26" width="54" height="50" fill="none" rx="14" stroke="#4393c3" stroke-width="2"/>
		<line x1="120" y1="51" x2="174" y2="51" stroke="#4393c3" stroke-width="1"/>
		<text x="128" y="43.75" fill="#000000" font-family="Verdana" font-size="12">LEAVE</text>
	</g>
	<text x="179" y="68" fill="#b2182b" font-family="Verdana" font-size="12">1,N</text>
	<text x="152" y="127" fill="#b2182b" font-family="Verdana" font-size="12">1,1</text>
</g>

<!-- Association ACCEPT -->
<g>
	<line x1="375" y1="203" x2="375" y2="51" stroke="#4393c3" stroke-width="2"/>
	<line x1="259" y1="51" x2="375" y2="51" stroke="#4393c3" stroke-width="2"/>
	<g>
		<path d="M392 26 a14 14 90 0 1 14 14 V51 h-62 V40 a14 14 90 0 1 14 -14" fill="#92c5de" stroke="#92c5de" stroke-width="0"/>
		<path d="M406 51 v11 a14 14 90 0 1 -14 14 H358 a14 14 90 0 1 -14 -14 V51 H62" fill="#d1e5f0" stroke="#d1e5f0" stroke-width="0"/>
		<rect x="344" y="26" width="62" height="50" fill="none" rx="14" stroke="#4393c3" stroke-width="2"/>
		<line x1="344" y1="51" x2="406" y2="51" stroke="#4393c3" stroke-width="1"/>
		<text x="351" y="43.75" fill="#000000" font-family="Verdana" font-size="12">ACCEPT</text>
	</g>
	<text x="380" y="110" fill="#b2182b" font-family="Verdana" font-size="12">0,N</text>
	<text x="317" y="68" fill="#b2182b" font-family="Verdana" font-size="12">1,N</text>
</g>

<!-- Association HAVE -->
<g>
	<line x1="46" y1="51" x2="46" y2="203" stroke="#4393c3" stroke-width="2"/>
	<line x1="147" y1="203" x2="46" y2="203" stroke="#4393c3" stroke-width="2"/>
	<g>
		<path d="M56 178 a14 14 90 0 1 14 14 V203 h-48 V192 a14 14 90 0 1 14 -14" fill="#92c5de" stroke="#92c5de" stroke-width="0"/>
		<path d="M70 203 v11 a14 14 90 0 1 -14 14 H36 a14 14 90 0 1 -14 -14 V203 H48" fill="#d1e5f0" stroke="#d1e5f0" stroke-width="0"/>
		<rect x="22" y="178" width="48" height="50" fill="none" rx="14" stroke="#4393c3" stroke-width="2"/>
		<line x1="22" y1="203" x2="70" y2="203" stroke="#4393c3" stroke-width="1"/>
		<text x="29" y="195.75" fill="#000000" font-family="Verdana" font-size="12">HAVE</text>
	</g>
	<text x="51" y="102" fill="#b2182b" font-family="Verdana" font-size="12">1,N</text>
	<text x="76" y="220" fill="#b2182b" font-family="Verdana" font-size="12">1,1</text>
</g>

<!-- Association CREATE -->
<g>
	<line x1="375" y1="203" x2="259" y2="203" stroke="#4393c3" stroke-width="2"/>
	<line x1="147" y1="203" x2="259" y2="203" stroke="#4393c3" stroke-width="2"/>
	<g>
		<path d="M277 178 a14 14 90 0 1 14 14 V203 h-64 V192 a14 14 90 0 1 14 -14" fill="#92c5de" stroke="#92c5de" stroke-width="0"/>
		<path d="M291 203 v11 a14 14 90 0 1 -14 14 H241 a14 14 90 0 1 -14 -14 V203 H64" fill="#d1e5f0" stroke="#d1e5f0" stroke-width="0"/>
		<rect x="227" y="178" width="64" height="50" fill="none" rx="14" stroke="#4393c3" stroke-width="2"/>
		<line x1="227" y1="203" x2="291" y2="203" stroke="#4393c3" stroke-width="1"/>
		<text x="235" y="195.75" fill="#000000" font-family="Verdana" font-size="12">CREATE</text>
	</g>
	<text x="304" y="220" fill="#b2182b" font-family="Verdana" font-size="12">1,N</text>
	<text x="197" y="220" fill="#b2182b" font-family="Verdana" font-size="12">1,1</text>
</g>

<!-- Association ASSOCIATE -->
<g>
	<line x1="494" y1="51" x2="494" y2="203" stroke="#4393c3" stroke-width="2"/>
	<line x1="375" y1="203" x2="494" y2="203" stroke="#4393c3" stroke-width="2"/>
	<g>
		<path d="M523 178 a14 14 90 0 1 14 14 V203 h-86 V192 a14 14 90 0 1 14 -14" fill="#92c5de" stroke="#92c5de" stroke-width="0"/>
		<path d="M537 203 v11 a14 14 90 0 1 -14 14 H465 a14 14 90 0 1 -14 -14 V203 H86" fill="#d1e5f0" stroke="#d1e5f0" stroke-width="0"/>
		<rect x="451" y="178" width="86" height="50" fill="none" rx="14" stroke="#4393c3" stroke-width="2"/>
		<line x1="451" y1="203" x2="537" y2="203" stroke="#4393c3" stroke-width="1"/>
		<text x="458" y="195.75" fill="#000000" font-family="Verdana" font-size="12">ASSOCIATE</text>
	</g>
	<text x="499" y="102" fill="#b2182b" font-family="Verdana" font-size="12">1,1</text>
	<text x="424" y="220" fill="#b2182b" font-family="Verdana" font-size="12">1,N</text>
</g>

<!-- Association GIVE -->
<g>
	<line x1="259" y1="338" x2="147" y2="338" stroke="#4393c3" stroke-width="2"/>
	<line x1="147" y1="203" x2="147" y2="338" stroke="#4393c3" stroke-width="2"/>
	<g>
		<path d="M156 313 a14 14 90 0 1 14 14 V338 h-46 V327 a14 14 90 0 1 14 -14" fill="#92c5de" stroke="#92c5de" stroke-width="0"/>
		<path d="M170 338 v11 a14 14 90 0 1 -14 14 H138 a14 14 90 0 1 -14 -14 V338 H46" fill="#d1e5f0" stroke="#d1e5f0" stroke-width="0"/>
		<rect x="124" y="313" width="46" height="50" fill="none" rx="14" stroke="#4393c3" stroke-width="2"/>
		<line x1="124" y1="338" x2="170" y2="338" stroke="#4393c3" stroke-width="1"/>
		<text x="132" y="330.75" fill="#000000" font-family="Verdana" font-size="12">GIVE</text>
	</g>
	<text x="206" y="355" fill="#b2182b" font-family="Verdana" font-size="12">1,1</text>
	<text x="152" y="288" fill="#b2182b" font-family="Verdana" font-size="12">1,1</text>
</g>

<!-- Association RECEIVE -->
<g>
	<line x1="375" y1="203" x2="375" y2="338" stroke="#4393c3" stroke-width="2"/>
	<line x1="259" y1="338" x2="375" y2="338" stroke="#4393c3" stroke-width="2"/>
	<g>
		<path d="M395 313 a14 14 90 0 1 14 14 V338 h-68 V327 a14 14 90 0 1 14 -14" fill="#92c5de" stroke="#92c5de" stroke-width="0"/>
		<path d="M409 338 v11 a14 14 90 0 1 -14 14 H355 a14 14 90 0 1 -14 -14 V338 H68" fill="#d1e5f0" stroke="#d1e5f0" stroke-width="0"/>
		<rect x="341" y="313" width="68" height="50" fill="none" rx="14" stroke="#4393c3" stroke-width="2"/>
		<line x1="341" y1="338" x2="409" y2="338" stroke="#4393c3" stroke-width="1"/>
		<text x="348" y="330.75" fill="#000000" font-family="Verdana" font-size="12">RECEIVE</text>
	</g>
	<text x="380" y="305" fill="#b2182b" font-family="Verdana" font-size="12">0,N</text>
	<text x="291" y="355" fill="#b2182b" font-family="Verdana" font-size="12">1,N</text>
</g>

<!-- Entity ROLE -->
<g>
	<g>
		<rect x="9" y="17" width="74" height="25" fill="#f4a582" stroke="none" stroke-width="0" opacity="1"/>
		<rect x="9" y="42" width="74" height="43" fill="#fddbc7" stroke="none" stroke-width="0" opacity="1"/>
		<rect x="9" y="17" width="74" height="68" fill="none" stroke="#d6604d" stroke-width="2" opacity="1"/>
		<line x1="9" y1="42" x2="83" y2="42" stroke="#d6604d" stroke-width="1"/>
	</g>
	<text x="30" y="34.75" fill="#000000" font-family="Verdana" font-size="12">ROLE</text>
	<text x="14" y="59.8" fill="#000000" font-family="Verdana" font-size="12">code_Role</text>
	<line x1="14" y1="62" x2="77" y2="62" stroke="#000000" stroke-width="1"/>
	<text x="14" y="76.8" fill="#000000" font-family="Verdana" font-size="12">role</text>
</g>

<!-- Entity COMMENT -->
<g>
	<g>
		<rect x="206" y="9" width="106" height="25" fill="#f4a582" stroke="none" stroke-width="0" opacity="1"/>
		<rect x="206" y="34" width="106" height="59" fill="#fddbc7" stroke="none" stroke-width="0" opacity="1"/>
		<rect x="206" y="9" width="106" height="84" fill="none" stroke="#d6604d" stroke-width="2" opacity="1"/>
		<line x1="206" y1="34" x2="312" y2="34" stroke="#d6604d" stroke-width="1"/>
	</g>
	<text x="228" y="26.75" fill="#000000" font-family="Verdana" font-size="12">COMMENT</text>
	<text x="211" y="51.8" fill="#000000" font-family="Verdana" font-size="12">code_Comment</text>
	<line x1="211" y1="54" x2="306" y2="54" stroke="#000000" stroke-width="1"/>
	<text x="211" y="68.8" fill="#000000" font-family="Verdana" font-size="12">content</text>
	<text x="211" y="85.8" fill="#000000" font-family="Verdana" font-size="12">date_comment</text>
</g>

<!-- Entity CATEGORY -->
<g>
	<g>
		<rect x="443" y="17" width="102" height="25" fill="#f4a582" stroke="none" stroke-width="0" opacity="1"/>
		<rect x="443" y="42" width="102" height="43" fill="#fddbc7" stroke="none" stroke-width="0" opacity="1"/>
		<rect x="443" y="17" width="102" height="68" fill="none" stroke="#d6604d" stroke-width="2" opacity="1"/>
		<line x1="443" y1="42" x2="545" y2="42" stroke="#d6604d" stroke-width="1"/>
	</g>
	<text x="461" y="34.75" fill="#000000" font-family="Verdana" font-size="12">CATEGORY</text>
	<text x="448" y="59.8" fill="#000000" font-family="Verdana" font-size="12">code_Category</text>
	<line x1="448" y1="62" x2="539" y2="62" stroke="#000000" stroke-width="1"/>
	<text x="448" y="76.8" fill="#000000" font-family="Verdana" font-size="12">name</text>
</g>

<!-- Entity USER -->
<g>
	<g>
		<rect x="102" y="135" width="90" height="25" fill="#f4a582" stroke="none" stroke-width="0" opacity="1"/>
		<rect x="102" y="160" width="90" height="111" fill="#fddbc7" stroke="none" stroke-width="0" opacity="1"/>
		<rect x="102" y="135" width="90" height="136" fill="none" stroke="#d6604d" stroke-width="2" opacity="1"/>
		<line x1="102" y1="160" x2="192" y2="160" stroke="#d6604d" stroke-width="1"/>
	</g>
	<text x="130" y="152.75" fill="#000000" font-family="Verdana" font-size="12">USER</text>
	<text x="107" y="177.8" fill="#000000" font-family="Verdana" font-size="12">code_User</text>
	<line x1="107" y1="180" x2="171" y2="180" stroke="#000000" stroke-width="1"/>
	<text x="107" y="194.8" fill="#000000" font-family="Verdana" font-size="12">name</text>
	<text x="107" y="211.8" fill="#000000" font-family="Verdana" font-size="12">email</text>
	<text x="107" y="228.8" fill="#000000" font-family="Verdana" font-size="12">password</text>
	<text x="107" y="245.8" fill="#000000" font-family="Verdana" font-size="12">date_created</text>
	<text x="107" y="262.8" fill="#000000" font-family="Verdana" font-size="12">status</text>
</g>

<!-- Entity RECIPE -->
<g>
	<g>
		<rect x="331" y="118" width="88" height="25" fill="#f4a582" stroke="none" stroke-width="0" opacity="1"/>
		<rect x="331" y="143" width="88" height="145" fill="#fddbc7" stroke="none" stroke-width="0" opacity="1"/>
		<rect x="331" y="118" width="88" height="170" fill="none" stroke="#d6604d" stroke-width="2" opacity="1"/>
		<line x1="331" y1="143" x2="419" y2="143" stroke="#d6604d" stroke-width="1"/>
	</g>
	<text x="353" y="135.75" fill="#000000" font-family="Verdana" font-size="12">RECIPE</text>
	<text x="336" y="160.8" fill="#000000" font-family="Verdana" font-size="12">code_Recipe</text>
	<line x1="336" y1="163" x2="413" y2="163" stroke="#000000" stroke-width="1"/>
	<text x="336" y="177.8" fill="#000000" font-family="Verdana" font-size="12">title</text>
	<text x="336" y="194.8" fill="#000000" font-family="Verdana" font-size="12">description</text>
	<text x="336" y="211.8" fill="#000000" font-family="Verdana" font-size="12">anecdote</text>
	<text x="336" y="228.8" fill="#000000" font-family="Verdana" font-size="12">ingredients</text>
	<text x="336" y="245.8" fill="#000000" font-family="Verdana" font-size="12">instructions</text>
	<text x="336" y="262.8" fill="#000000" font-family="Verdana" font-size="12">source</text>
	<text x="336" y="279.8" fill="#000000" font-family="Verdana" font-size="12">date_added</text>
</g>

<!-- Entity SCORE -->
<g>
	<g>
		<rect x="232" y="313" width="54" height="25" fill="#f4a582" stroke="none" stroke-width="0" opacity="1"/>
		<rect x="232" y="338" width="54" height="25" fill="#fddbc7" stroke="none" stroke-width="0" opacity="1"/>
		<rect x="232" y="313" width="54" height="50" fill="none" stroke="#d6604d" stroke-width="2" opacity="1"/>
		<line x1="232" y1="338" x2="286" y2="338" stroke="#d6604d" stroke-width="1"/>
	</g>
	<text x="238" y="330.75" fill="#000000" font-family="Verdana" font-size="12">SCORE</text>
	<text x="237" y="355.8" fill="#000000" font-family="Verdana" font-size="12">score</text>
	<line x1="237" y1="358" x2="270" y2="358" stroke="#000000" stroke-width="1"/>
</g>
</svg>